<?xml version="1.0" encoding="UTF-8"?>
<svg width="479px" height="474px" viewBox="0 0 479 474" version="1.1" xmlns="http://www.w3.org/2000/svg" xmlns:xlink="http://www.w3.org/1999/xlink">
    <!-- Generator: sketchtool 51.2 (57519) - http://www.bohemiancoding.com/sketch -->
    <title>415E2F3B-ABFA-49C3-8CF7-7EAC6CC21BBD</title>
    <desc>Created with sketchtool.</desc>
    <defs>
        <linearGradient x1="-13.4098282%" y1="54.824462%" x2="88.3384339%" y2="50.1592539%" id="linearGradient-1">
            <stop stop-color="#FFFFFF" stop-opacity="0.97" offset="3%"></stop>
            <stop stop-color="#FFFFFF" stop-opacity="0" offset="100%"></stop>
        </linearGradient>
    </defs>
    <g id="Page-1" stroke="none" stroke-width="1" fill="none" fill-rule="evenodd">
        <g id="Error-404-(1201+)" transform="translate(-353.000000, -231.000000)">
            <g id="404" transform="translate(353.000000, 231.000000)">
                <circle id="Oval" fill="#E6E7E8" fill-rule="nonzero" opacity="0.2" cx="241.7" cy="236.8" r="236.8"></circle>
                <circle id="Oval" fill="#E5E5E5" fill-rule="nonzero" opacity="0.43" cx="241.7" cy="236.8" r="181"></circle>
                <circle id="Oval" fill="#DEDDDD" fill-rule="nonzero" opacity="0.21" cx="241.6" cy="243.8" r="152"></circle>
                <polygon id="Shape" fill="url(#linearGradient-1)" fill-rule="nonzero" points="244.5 167.4 453.7 106.9 494.8 246.3 244.5 176.7"></polygon>
                <path d="M248.8,238.3 C248.8,238.3 247.7,184.2 248.6,181.7 C249.1,180.7 249.9,179.8 251,179.3 C251.4,179.1 251.5,178.6 251.3,178.2 C251.2,177.9 250.9,177.8 250.6,177.8 L219.4,177.8 C219,177.8 218.6,178.1 218.6,178.6 C218.6,178.9 218.7,179.2 219,179.3 C220.6,180.3 222.3,181.6 222.2,182.6 C222.1,184.5 222.2,238.3 222.2,238.3 C222.2,238.3 218,238.5 218,240.4 C218,242.7 218.6,244.4 216,244.6 C214.8,244.7 213.5,244.6 212.2,244.7 C210.3,244.8 209.6,246 209.6,248.1 C209.6,255.4 210.2,259.1 208.4,259.2 C206.3,259.3 206,259.7 206.2,263.7 C206.4,267.7 206.2,274.6 206.2,274.6 C206.2,274.6 205.7,277.4 207.4,277.6 C209.1,277.8 251,278 251,278 C251,278 254.3,278.5 253.9,273.6 C253.5,268.7 254,246.7 253.2,244.6 C252.5,242.4 249.7,241.1 248.8,238.3 Z" id="Shape" fill="#E4445F" fill-rule="nonzero"></path>
                <path d="M218.9,179.3 C220.5,180.3 222.2,181.6 222.1,182.6 C222,183.3 222,190.9 222,200.3 C224.8,200.4 227.5,200.7 230.3,200.9 C231.4,200.8 232.5,200.8 233.6,200.8 C237.6,200.8 241.9,201.1 246.1,201.1 L248.2,200.9 C248.1,190.9 248.2,182.6 248.5,181.6 C249,180.6 249.8,179.7 250.9,179.2 C251.3,179 251.4,178.5 251.2,178.1 C251.1,177.8 250.8,177.7 250.5,177.7 L219.2,177.7 C218.8,177.7 218.4,178.1 218.5,178.5 C218.6,178.9 218.7,179.2 218.9,179.3 Z" id="Shape" fill="#FCFAF7" fill-rule="nonzero"></path>
                <path d="M213.6,261.2 C214,260.6 214.6,260.2 215.3,260 C219.1,259.2 223,258.9 226.9,259.1 C227.6,258.7 228.4,258.5 229.2,258.6 C237.2,260.1 245.4,258.8 253.5,259.1 L253.9,259.1 C253.9,252.3 253.8,245.5 253.4,244.4 C252.6,242.3 249.8,241 248.9,238.2 L248.9,237.8 L245.4,237.8 C243.4,237.9 241.4,238 239.5,238.2 C233,238.6 226.5,238.6 220,238.6 C219,238.9 218.1,239.4 218.1,240.3 C218.1,242.6 218.7,244.3 216.1,244.5 C214.9,244.6 213.6,244.5 212.3,244.6 C210.4,244.7 209.7,245.9 209.7,248 C209.7,255.3 210.3,259 208.5,259.1 C207.4,259.2 206.8,259.3 206.5,260 C208.9,260.3 211.3,260.8 213.6,261.2 Z" id="Shape" fill="#FCFAF7" fill-rule="nonzero"></path>
                <path d="M253.8,269.7 L249.7,269.7 C242.3,269.9 234.8,270.2 227.4,270.3 C225.4,270.3 223.3,270.3 221.3,270.3 C216.3,270.6 211.3,270.9 206.3,271 C206.3,273 206.2,274.6 206.2,274.6 C206.2,274.6 205.7,277.4 207.4,277.6 C209.1,277.8 251,278 251,278 C251,278 254.3,278.5 253.9,273.6 C253.9,272.6 253.9,271.3 253.8,269.7 Z" id="Shape" fill="#FCFAF7" fill-rule="nonzero"></path>
                <path d="M221.6,238.3 C225.3,238.2 229,238.1 232.6,238.2 C232.4,237.3 232.2,236.4 232,235.4 C230.8,225.6 231.6,215.4 231.7,205.6 C231.7,204.2 231.7,202.8 231.7,201.4 C228.5,201.6 225.3,201.7 222,201.7 C222,217.8 222.1,238.2 222.1,238.2 L221.6,238.3 Z" id="Shape" fill="#C63856" fill-rule="nonzero"></path>
                <path d="M253.8,266.4 C251.4,266.4 248.9,266.6 246.6,265.6 C243.9,264.5 242.7,262.2 241.9,259.6 C240.8,259.6 239.7,259.6 238.6,259.6 C228.7,259.4 218.8,258.8 209,259 C208.8,259.1 208.7,259.2 208.5,259.2 C206.4,259.3 206.1,259.7 206.3,263.7 C206.5,267.7 206.3,274.6 206.3,274.6 C206.3,274.6 205.8,277.4 207.5,277.6 C209.2,277.8 251.1,278 251.1,278 C251.1,278 254.4,278.5 254,273.6 C253.9,272.1 253.8,269.5 253.8,266.4 Z" id="Shape" fill="#C63856" fill-rule="nonzero"></path>
                <path d="M218.9,179.3 C220.5,180.3 222.2,181.6 222.1,182.6 C222,183.3 222,191.2 222,200.8 L224.8,200.9 C227.1,201 229.4,201.1 231.7,201.2 C231.7,197.5 231.6,193.8 231.7,190 C231.9,185.9 231.8,181.8 231.5,177.7 L219.2,177.7 C218.8,177.7 218.4,178.1 218.4,178.5 C218.6,178.9 218.7,179.2 218.9,179.3 Z" id="Shape" fill="#DEDDDD" fill-rule="nonzero" opacity="0.88"></path>
                <path d="M209.5,258.3 C211.8,258.3 214.3,259.2 216.6,259.2 C225,259.1 234.4,259.5 241.6,258.2 C239.9,251.2 234.9,245.7 232.9,238.8 C228.1,239.1 223.2,239.4 218.4,239.6 C218.2,239.8 218.1,240.1 218.1,240.4 C218.1,242.7 218.7,244.4 216.1,244.6 C214.9,244.7 213.6,244.6 212.3,244.7 C210.4,244.8 209.7,246 209.7,248.1 C209.7,253.4 210,256.8 209.5,258.3 Z" id="Shape" fill="#DEDDDD" fill-rule="nonzero" opacity="0.88"></path>
                <path d="M248.8,238.3 C248.8,238.3 247.7,184.2 248.6,181.7 C249.1,180.7 249.9,179.8 251,179.3 C251.4,179.1 251.5,178.6 251.3,178.2 C251.2,177.9 250.9,177.8 250.6,177.8 L219.4,177.8 C219,177.8 218.6,178.1 218.6,178.6 C218.6,178.9 218.7,179.2 219,179.3 C220.6,180.3 222.3,181.6 222.2,182.6 C222.1,184.5 222.2,238.3 222.2,238.3 C222.2,238.3 218,238.5 218,240.4 C218,242.7 218.6,244.4 216,244.6 C214.8,244.7 213.5,244.6 212.2,244.7 C210.3,244.8 209.6,246 209.6,248.1 C209.6,255.4 210.2,259.1 208.4,259.2 C206.3,259.3 206,259.7 206.2,263.7 C206.4,267.7 206.2,274.6 206.2,274.6 C206.2,274.6 206,277.7 207.8,277.9 C209.6,278.1 251.1,277.9 251.1,277.9 C251.1,277.9 254.2,278.4 254,273.5 C253.8,268.4 254.1,246.6 253.3,244.5 C252.5,242.4 249.7,241.1 248.8,238.3 Z" id="Shape" stroke="#999999" stroke-width="1.86" stroke-linecap="round"></path>
                <path d="M244.4,160.7 L227.7,160.7 C227,158.7 227.3,156.6 228.3,154.8 C230.5,151.2 234.9,149.5 238.9,151 C242.7,152.1 245,154.8 244.4,160.7 Z" id="Shape" fill="#E4445F" fill-rule="nonzero"></path>
                <path d="M239.2,160.1 C239.2,160.1 234.1,158.1 233.9,153 C233.8,149.9 232.5,151.1 231.9,151.4 C231.4,151.7 227.1,155.3 227.3,157.6 C227.5,159.9 229.4,160.6 231.2,160.6 L237.7,160.6 L239.2,160.1 Z" id="Shape" fill="#C63856" fill-rule="nonzero"></path>
                <path d="M246.4,171 C245.5,170.1 225.1,170.3 225.1,170.8 C225.1,171.3 225.1,177.4 225.1,177.4 L246.3,177.4 C246.3,177.4 246.8,171.4 246.4,171 Z" id="Shape" fill="#E4445F" fill-rule="nonzero"></path>
                <path d="M230.7,177.8 C230.7,177.8 227.8,175.6 227.7,173.4 C227.6,171.2 227.7,169.9 227.7,169.9 L225.1,169.9 C225.1,169.9 224.4,175.5 224.5,175.8 C224.6,176.1 225.1,177.9 225.1,177.9 L230.7,177.8 Z" id="Shape" fill="#C63856" fill-rule="nonzero"></path>
                <path d="M246.4,171 C245.5,170.1 225.1,170.3 225.1,170.8 C225.1,171.3 225.1,177.4 225.1,177.4 L246.3,177.4 C246.3,177.4 246.8,171.4 246.4,171 Z" id="Shape" stroke="#999999" stroke-width="1.86" stroke-linecap="round"></path>
                <path d="M248.8,238.3 L220.9,238.3" id="Shape" stroke="#999999" stroke-width="1.86" stroke-linecap="round"></path>
                <path d="M250.2,201.2 L221.1,201.2" id="Shape" stroke="#999999" stroke-width="1.86" stroke-linecap="round"></path>
                <path d="M208.5,259.2 L254,259.2" id="Shape" stroke="#999999" stroke-width="1.86" stroke-linecap="round"></path>
                <path d="M244.4,160.7 L227.7,160.7 C227,158.7 227.3,156.6 228.3,154.8 C230.5,151.2 234.9,149.5 238.9,151 C242.7,152.1 245,154.8 244.4,160.7 Z" id="Shape" stroke="#999999" stroke-width="1.86" stroke-linecap="round"></path>
                <path d="M236,143.9 C236,144.6 236,150.4 236,150.4" id="Shape" stroke="#999999" stroke-width="1.86" stroke-linecap="round"></path>
                <path d="M227.7,160.7 L227.7,169.9" id="Shape" stroke="#999999" stroke-width="1.86" stroke-linecap="round"></path>
                <path d="M238.6,160.7 L238.6,169.9" id="Shape" stroke="#999999" stroke-width="1.86" stroke-linecap="round"></path>
                <path d="M244.5,169.9 L244.5,160.7" id="Shape" stroke="#999999" stroke-width="1.86" stroke-linecap="round"></path>
                <path d="M299,277.9 C301.9,277.9 304.3,280.3 304.3,283.2 C304.3,283.8 304.2,284.4 304,284.9 C302.8,288.2 301.4,292 300.2,294.8 C299,297.6 297.2,301.3 295.3,304.8 C292.2,310.4 284.3,304.2 282.7,310.8 C279.1,325.3 272.4,351.4 271.3,357 C269.2,367.8 267.2,380.3 260.5,380.2 C255.2,380.2 253.9,375.1 252.6,368.4 C251.6,363.1 251.3,355.5 244.7,355.9 C237.8,356.3 238,362.1 236.3,371.1 C234.2,382.1 231.9,390.2 225.7,390.2 C215.9,390.2 215.4,374.7 212.7,358.6 L209.1,329.9 C208.1,320.8 207.7,313.7 201.7,314.2 C195.4,314.7 196.2,318 195.2,324 C194.3,329.7 193.7,335 188.1,335.4 C181.7,335.9 179.9,324.6 179.3,320.9 C177.3,307.7 176.2,296.5 171.2,294.2 C165.6,291.6 159.5,290 154.8,287.8 C152.2,286.5 151.1,283.3 152.4,280.7 C153.3,278.9 155.1,277.7 157.2,277.7 L299,277.7 L299,277.9 Z" id="Shape" stroke="#7D7D7D" stroke-width="1.45" fill="#FCFAF7" fill-rule="nonzero" stroke-linecap="round"></path>
                <path d="M296.1,301.1 C293.2,301.9 290.1,301.6 286.7,301.8 C285.9,302 285.2,302.2 284.4,302.3 C283.3,302.7 282.3,303.4 281.5,304.3 C279.2,309.1 276.4,321.4 275.3,327.1 C273.8,334.6 272.2,338.7 269.2,338.7 C264.6,338.7 264.2,335.7 262.7,329.3 C261.2,322.9 262,317.2 255.7,317.4 C249.4,317.6 250.1,321.3 247.4,330.8 C244.9,339.6 244.4,345.8 237,345.5 C230.4,345.2 228.6,338.5 226.9,324 C223.5,294.4 222.9,291.3 217.6,291.1 C214.6,291 213.1,290.7 211.2,292.8 C207.3,297.3 197.8,297.5 194,289.6 C191.7,284.9 191,282.6 188.9,277.9 L157.4,277.9 C154.5,277.9 152.1,280.2 152,283.1 C152,285.2 153.2,287 155,287.9 C159.7,290.1 165.8,291.7 171.4,294.3 C176.3,296.6 177.5,307.8 179.5,321 C180.1,324.7 181.9,335.9 188.3,335.5 C193.9,335.1 194.5,329.8 195.4,324.1 C196.4,318 195.6,314.8 201.9,314.3 C207.9,313.8 208.3,320.9 209.3,330 L212.9,358.7 C215.6,374.8 216.1,390.3 225.9,390.3 C232.1,390.3 234.4,382.2 236.5,371.2 C238.2,362.3 238,356.4 244.9,356 C251.5,355.6 251.7,363.2 252.8,368.5 C254.1,375.1 255.3,380.2 260.7,380.3 C267.4,380.3 269.4,367.9 271.5,357.1 C272.6,351.5 279.3,325.3 282.9,310.9 C284.5,304.3 292.4,310.5 295.5,304.9 C296.1,303.8 296.7,302.7 297.2,301.6 C296.7,301.5 296.4,301.3 296.1,301.1 Z" id="Shape" fill="#E5E5E5" fill-rule="nonzero" opacity="0.76"></path>
                <path d="M299,277.9 C301.9,277.9 304.3,280.3 304.3,283.2 C304.3,283.8 304.2,284.4 304,284.9 C302.8,288.2 301.4,292 300.2,294.8 C299,297.6 297.2,301.3 295.3,304.8 C292.2,310.4 284.3,304.2 282.7,310.8 C279.1,325.3 272.4,351.4 271.3,357 C269.2,367.8 267.2,380.3 260.5,380.2 C255.2,380.2 253.9,375.1 252.6,368.4 C251.6,363.1 251.3,355.5 244.7,355.9 C237.8,356.3 238,362.1 236.3,371.1 C234.2,382.1 231.9,390.2 225.7,390.2 C215.9,390.2 215.4,374.7 212.7,358.6 L209.1,329.9 C208.1,320.8 207.7,313.7 201.7,314.2 C195.4,314.7 196.2,318 195.2,324 C194.3,329.7 193.7,335 188.1,335.4 C181.7,335.9 179.9,324.6 179.3,320.9 C177.3,307.7 176.2,296.5 171.2,294.2 C165.6,291.6 159.5,290 154.8,287.8 C152.2,286.5 151.1,283.3 152.4,280.7 C153.3,278.9 155.1,277.7 157.2,277.7 L299,277.7 L299,277.9 Z" id="Shape" stroke="#999999" stroke-width="1.86" stroke-linecap="round"></path>
                <path d="M182.7,315.8 L188.9,315.8" id="Shape" stroke="#CCCCCC" stroke-width="0.93" stroke-linecap="round"></path>
                <path d="M216.2,330.4 L224.9,330.4" id="Shape" stroke="#CCCCCC" stroke-width="0.93" stroke-linecap="round"></path>
                <path d="M220.5,304.3 L206,304.3" id="Shape" stroke="#CCCCCC" stroke-width="0.93" stroke-linecap="round"></path>
                <path d="M232,321.2 L241.4,321.2" id="Shape" stroke="#CCCCCC" stroke-width="0.93" stroke-linecap="round"></path>
                <path d="M221.3,345.7 L229.7,345.7" id="Shape" stroke="#CCCCCC" stroke-width="0.93" stroke-linecap="round"></path>
                <path d="M163.1,285.1 L174.2,285.1" id="Shape" stroke="#CCCCCC" stroke-width="0.93" stroke-linecap="round"></path>
                <path d="M218.8,357.5 L224.9,357.4" id="Shape" stroke="#CCCCCC" stroke-width="0.93" stroke-linecap="round"></path>
                <path d="M187,291.7 L196.5,291.7" id="Shape" stroke="#CCCCCC" stroke-width="0.93" stroke-linecap="round"></path>
                <path d="M215.8,285.1 L230.6,285.1" id="Shape" stroke="#CCCCCC" stroke-width="0.93" stroke-linecap="round"></path>
                <path d="M236.2,308.5 L247,308.5" id="Shape" stroke="#CCCCCC" stroke-width="0.93" stroke-linecap="round"></path>
                <path d="M243.4,331.9 L258.2,331.9" id="Shape" stroke="#CCCCCC" stroke-width="0.93" stroke-linecap="round"></path>
                <path d="M257.3,366.6 L262.7,366.6" id="Shape" stroke="#CCCCCC" stroke-width="0.93" stroke-linecap="round"></path>
                <path d="M258.4,355.3 L267.1,355.2" id="Shape" stroke="#CCCCCC" stroke-width="0.93" stroke-linecap="round"></path>
                <path d="M243.3,348.5 L251.2,348.5" id="Shape" stroke="#CCCCCC" stroke-width="0.93" stroke-linecap="round"></path>
                <path d="M224.2,369.4 L232.1,369.4" id="Shape" stroke="#CCCCCC" stroke-width="0.93" stroke-linecap="round"></path>
                <path d="M187,304.3 L194.9,304.3" id="Shape" stroke="#CCCCCC" stroke-width="0.93" stroke-linecap="round"></path>
                <path d="M187.5,325.3 L191.7,325.3" id="Shape" stroke="#CCCCCC" stroke-width="0.93" stroke-linecap="round"></path>
                <path d="M221.6,380.2 L229.5,380.2" id="Shape" stroke="#CCCCCC" stroke-width="0.93" stroke-linecap="round"></path>
                <path d="M290.2,201.2 C290.2,201.2 301.4,201.5 309.1,201.2 C316.8,200.9 327.4,202.2 327.4,196.8 C327.4,191.4 321.7,192 321.7,192 C321.7,192 312,192.5 312,187.4 C312,181.3 320.8,182.1 328.8,182.3 C336.8,182.5 355.1,182.5 370.5,182.3 C385.1,182.2 387.6,183.5 387.7,187.2 C387.8,190.9 384.9,191.4 380.5,191.7 C374.9,192.1 366.8,191.2 366.9,196.5 C366.9,199 368,201.1 372.7,201.1 C376,201.1 405.3,201 411.6,201 C417.1,201.1 418.4,203.6 418.4,205.4 C418.4,210.6 414,210.6 414,210.6 C414,210.6 380,210.5 371.6,210.6 C364.2,210.7 361.6,210.1 359.2,213.4 C356.3,218.4 356.9,219.9 354.8,224 C352.3,228.6 342.6,228.4 338.3,228.5 C338,228.5 314,228.5 310.9,228.5 C305.6,228.4 295,229.1 294.5,224.9 C294.2,222.4 295.1,220.2 298.4,219.8 C303.3,219.2 304.4,218.5 304.4,215.4 C304.3,213.6 303.1,212.1 301.3,211.7 C297.2,210.8 292.7,211.2 290.8,211.3 C287.3,211.4 282.5,211.3 282.8,205.9 C283.1,200.5 290.2,201.2 290.2,201.2 Z" id="Shape" fill="#FFFFFF" fill-rule="nonzero"></path>
                <path d="M362.4,277 L360.4,275.1" id="Shape" stroke="#999999" stroke-width="1.86" stroke-linecap="round"></path>
                <polyline id="Shape" stroke="#999999" stroke-width="1.86" stroke-linecap="round" points="400.8 277 398.9 275.7 396.8 277"></polyline>
                <path d="M409.2,283.5 C407.5,283 401.8,283.9 401,283.8 C400.2,283.7 398.9,287.3 398.9,287.3 C398.9,287.3 398.1,288.3 397.8,286.9 C397.7,286.5 397.2,283.9 395.1,283.6 C393.4,283.4 391.8,283.3 390.1,283.4 C390.1,283.4 387.1,283.3 386.7,284.3 C386.3,285.3 387.9,288.2 390,290 C392.1,291.6 394.3,293 396.6,294.3 C395.9,297.3 393.6,300.5 390,304.1 C388,306.3 385,307.5 382,307.4 C382,307.4 361.6,305.2 360.2,307.3 C357.4,311.5 361.7,317.9 367.8,323.3 C373.9,328.7 381,326.7 382.8,326.7 C384.6,326.7 384.6,330 387.8,332 C391,334 395.3,332.1 395.8,331 C396.3,329.9 391.1,324.5 391.1,324.5 C391.1,324.5 388.4,324.7 388.8,324.4 C388.8,324.4 393.5,323.8 397.2,317.9 C400.9,312 399.8,301.2 400,297.4 C400,296.4 400.1,295.4 400.1,294.5 C400.1,294.5 405.4,292.4 406.9,290 C408.4,287.6 410.9,283.9 409.2,283.5 Z" id="Shape" fill="#FCFAF7" fill-rule="nonzero"></path>
                <path d="M405,291.4 C403.5,291.6 401.5,291.2 400.1,291.8 C398.7,292.4 398.4,293.8 398.1,295.3 C397.7,297.5 397.5,299.7 397.1,301.9 C397,302.4 396.9,302.9 396.8,303.4 L396.7,303.7 L396.7,303.8 C396.3,305.7 395.6,307.5 394.7,309.2 C392.6,313.6 389.3,317.3 384.4,318.1 C380.1,318.8 377.9,317.3 374.6,314.9 C373.8,314.5 371.4,314.1 370.7,313.6 C369.6,313.2 368.5,312.8 367.4,312.5 C364.7,311.8 361.9,311.7 359.2,311.3 C359.8,315 363.3,319.4 367.6,323.2 C373.7,328.6 380.8,326.6 382.6,326.6 C384.4,326.6 384.4,329.9 387.6,331.9 C390.8,333.9 395.1,332 395.6,330.9 C396.1,329.8 390.9,324.4 390.9,324.4 C390.9,324.4 388.2,324.6 388.6,324.3 C388.6,324.3 393.3,323.7 397,317.8 C400.7,311.9 399.6,301.1 399.8,297.3 C399.8,296.3 399.9,295.3 399.9,294.4 C401.9,293.6 403.8,292.5 405.5,291.2 L405,291.4 Z" id="Shape" fill="#DEDDDD" fill-rule="nonzero" opacity="0.76"></path>
                <path d="M393.7,288.6 C392,286.8 390.2,285.2 388.7,283.3 C387.8,283.4 386.7,283.6 386.5,284.2 C386.1,285.2 387.7,288.1 389.8,289.9 C391.7,291.4 393.6,292.7 395.7,293.8 C395.9,293.8 396,293.9 396.2,293.9 C396.1,291.9 395.2,290 393.7,288.6 Z" id="Shape" fill="#DEDDDD" fill-rule="nonzero" opacity="0.76"></path>
                <path d="M409.2,283.5 C407.5,283 401.8,283.9 401,283.8 C400.2,283.7 398.9,287.3 398.9,287.3 C398.9,287.3 398.1,288.3 397.8,286.9 C397.7,286.5 397.2,283.9 395.1,283.6 C393.4,283.4 391.8,283.3 390.1,283.4 C390.1,283.4 387.1,283.3 386.7,284.3 C386.3,285.3 387.9,288.2 390,290 C392.1,291.6 394.3,293 396.6,294.3 C395.9,297.3 393.6,300.5 390,304.1 C388,306.3 385,307.5 382,307.4 C382,307.4 361.6,305.2 360.2,307.3 C357.4,311.5 361.7,317.9 367.8,323.3 C373.9,328.7 381,326.7 382.8,326.7 C384.6,326.7 384.6,330 387.8,332 C391,334 395.3,332.1 395.8,331 C396.3,329.9 391.1,324.5 391.1,324.5 C391.1,324.5 388.4,324.7 388.8,324.4 C388.8,324.4 393.5,323.8 397.2,317.9 C400.9,312 399.8,301.2 400,297.4 C400,296.4 400.1,295.4 400.1,294.5 C400.1,294.5 405.4,292.4 406.9,290 C408.4,287.6 410.9,283.9 409.2,283.5 Z" id="Shape" stroke="#999999" stroke-width="1.86" stroke-linecap="round"></path>
                <path d="M382.3,326.6 C382.3,326.6 382,319.8 378,316.7 C374,313.6 359.4,310.9 359.4,310.9" id="Shape" stroke="#999999" stroke-width="1.86" stroke-linecap="round"></path>
                <path d="M360.4,274.2 C360.4,274.2 352.7,273.6 352.9,266.7 C353.1,259.8 354.2,255.6 360.4,255.2 C366.6,254.8 367.6,261.7 367,266.7 C366.4,271.7 364.9,273.4 360.4,274.2 Z" id="Shape" fill="#FCFAF7" fill-rule="nonzero"></path>
                <path d="M366,266.8 C360.5,270.2 356,261.9 355.2,256.7 C353.1,258.6 352.6,261.9 352.4,266.5 C352.2,273.3 360.4,275.1 360.4,275.1 C364.8,274.3 367.2,271.1 367.7,266.1 C367.7,266.1 366.5,266.4 366.5,266.3 C366.4,266.5 366.2,266.7 366,266.8 Z" id="Shape" fill="#DEDDDD" fill-rule="nonzero" opacity="0.76"></path>
                <path d="M360.4,275.1 C357.6,275.1 352.3,273.6 351.8,266.1 C351.4,259.3 354.1,254.6 360.4,254.6 C366.2,254.6 368.3,260.6 367.8,265.6 C367.3,270.6 364.9,275.1 360.4,275.1 Z" id="Shape" stroke="#999999" stroke-width="1.86" stroke-linecap="round"></path>
                <path d="M360.1,306.6 C360,306.3 360.5,275.7 360.5,275.7 L358.4,277" id="Shape" stroke="#999999" stroke-width="1.86" stroke-linecap="round"></path>
                <path d="M398.8,275.1 C398.8,275.1 391.3,275.1 391.2,266.9 C391.1,258.7 394.5,254.7 398.8,254.7 C403.1,254.7 405.6,258.2 406.2,263.6 C406.9,268.6 404.6,274.7 398.8,275.1 Z" id="Shape" fill="#FCFAF7" fill-rule="nonzero"></path>
                <path d="M398.3,264.9 C395.9,262.5 394.8,259 395.3,255.7 C392.8,257.3 391.1,261 391.1,266.9 C391.2,275.1 398.7,275.1 398.7,275.1 C403.3,274.8 405.7,270.8 406.2,266.6 C403.6,268 400.4,266.8 398.3,264.9 Z" id="Shape" fill="#DEDDDD" fill-rule="nonzero" opacity="0.76"></path>
                <path d="M398.8,275.1 C396.9,275.1 390.9,273 390.8,264.8 C390.7,256.6 394.4,254.7 398.8,254.7 C403.2,254.7 405.7,257.7 406.3,263 C407,268 404.6,275.1 398.8,275.1 Z" id="Shape" stroke="#999999" stroke-width="1.86" stroke-linecap="round"></path>
                <path d="M398.7,286.3 L398.8,275.1" id="Shape" stroke="#999999" stroke-width="1.86" stroke-linecap="round"></path>
                <circle id="Oval" stroke="#999999" stroke-width="1.86" stroke-linecap="round" cx="375.1" cy="310.9" r="1"></circle>
                <path d="M58.5,206 L95.8,206 C95.8,206 112.5,204.3 113.1,213 C113.9,224.1 68,220.8 55.4,221.3 C42.8,221.8 12.3,220.7 12.3,220.7 C12.3,220.7 0.3,219 0.3,228.4 C0.3,237.2 13.9,235.5 25.5,235.8 C42.3,236.3 79.1,232.3 83.4,246 C87.7,259.7 92.8,262.8 103,263.1 C113.2,263.4 189.8,263.1 189.8,263.1 C189.8,263.1 199,264.1 199,256.7 C199,249.3 192.4,248.4 178.6,248.9 C164.8,249.4 139.1,251.8 138.7,243.2 C138.3,234.6 148.2,236.1 161.9,235.8 C175.6,235.5 225.6,235.4 225.6,235.4 C225.6,235.4 233.2,236.9 233.2,228.3 C233.2,223.6 230.5,221.6 220.7,221 C212.9,220.5 198.2,220.6 186.9,220.1 C179.3,219.8 177.7,217.5 177.4,213.5 C177.1,209.5 180.5,205.8 187.6,205.9 C194.7,206 199.4,202.9 198.9,197 C198.4,191.1 197.5,187.7 172.4,188.4 L69.4,188.3 C56.4,188.1 36.4,186 36.4,196 C36.6,204.3 41.4,206 58.5,206 Z" id="Shape" fill="#FFFFFF" fill-rule="nonzero"></path>
                <circle id="Oval" fill="#FCFAF7" fill-rule="nonzero" cx="168.6" cy="106" r="18.1"></circle>
                <path d="M165.4,114 C159,108.6 156.6,100.5 156.8,92.4 C149.3,99 148.5,110.4 155.1,117.9 C161.3,125 171.9,126.1 179.4,120.5 C174.3,119.5 169.5,117.3 165.4,114 Z" id="Shape" fill="#DEDDDD" fill-rule="nonzero" opacity="0.88"></path>
                <circle id="Oval" stroke="#999999" stroke-width="1.36" opacity="0.54" stroke-linecap="round" cx="168.6" cy="106" r="18"></circle>
                <path d="M152.9,103.1 L156.6,103.1" id="Shape" stroke="#CCCCCC" stroke-width="0.93" stroke-linecap="round"></path>
                <path d="M157.2,110.1 L161.5,110.1" id="Shape" stroke="#CCCCCC" stroke-width="0.93" stroke-linecap="round"></path>
                <path d="M165.6,100.3 L160.3,100.3" id="Shape" stroke="#CCCCCC" stroke-width="0.93" stroke-linecap="round"></path>
                <path d="M168.1,106.9 L171.6,106.9" id="Shape" stroke="#CCCCCC" stroke-width="0.93" stroke-linecap="round"></path>
                <path d="M158.6,116.4 L162,116.4" id="Shape" stroke="#CCCCCC" stroke-width="0.93" stroke-linecap="round"></path>
                <path d="M156.6,96.2 L159.7,96.2" id="Shape" stroke="#CCCCCC" stroke-width="0.93" stroke-linecap="round"></path>
                <path d="M163.9,93.4 L168.6,93.4" id="Shape" stroke="#CCCCCC" stroke-width="0.93" stroke-linecap="round"></path>
                <path d="M177.5,110.5 L182.2,110.5" id="Shape" stroke="#CCCCCC" stroke-width="0.93" stroke-linecap="round"></path>
                <path d="M175.4,116.8 L178.2,116.8" id="Shape" stroke="#CCCCCC" stroke-width="0.93" stroke-linecap="round"></path>
                <path d="M169.1,113 L171.6,113" id="Shape" stroke="#CCCCCC" stroke-width="0.93" stroke-linecap="round"></path>
                <path d="M166.6,120.2 L169.1,120.2" id="Shape" stroke="#CCCCCC" stroke-width="0.93" stroke-linecap="round"></path>
                <path d="M296.5,90.2 C296.5,90.2 290,90.4 285.5,90.2 C281,90 274.8,90.8 274.8,87.6 C274.8,84.4 278.2,84.8 278.2,84.8 C278.2,84.8 283.9,85.1 283.9,82.1 C283.9,78.5 278.8,79 274.1,79.1 C269.4,79.2 258.7,79.2 249.7,79.1 C241.1,79 239.7,79.8 239.7,82 C239.7,84.2 241.3,84.5 243.9,84.6 C247.2,84.8 251.9,84.3 251.9,87.4 C251.9,88.8 251.2,90.1 248.5,90.1 C246.6,90.1 229.5,90 225.8,90.1 C222.6,90.1 221.8,91.6 221.8,92.7 C221.8,95.8 224.4,95.7 224.4,95.7 C224.4,95.7 244.3,95.6 249.2,95.7 C253.5,95.8 255.1,95.4 256.4,97.3 C258.1,100.2 257.7,101.1 259,103.5 C260.5,106.2 266.2,106.1 268.6,106.1 C268.8,106.1 282.8,106.1 284.6,106.1 C287.7,106.1 293.9,106.4 294.2,104 C294.5,102.7 293.8,101.4 292.5,101.1 C292.3,101.1 292.1,101 291.9,101 C289,100.6 288.4,100.2 288.4,98.4 C288.4,97.4 289.2,96.5 290.2,96.2 C292.2,95.8 294.3,95.8 296.4,96 C298.4,96.1 301.3,96 301.1,92.8 C300.9,89.6 296.5,90.2 296.5,90.2 Z" id="Shape" fill="#FFFFFF" fill-rule="nonzero"></path>
                <path d="M242.1,209.3 L242.1,214.8" id="Shape" stroke="#FFFFFF" stroke-width="4" stroke-linecap="round"></path>
                <path d="M242.1,224.3 L242.1,229.8" id="Shape" stroke="#FFFFFF" stroke-width="4" stroke-linecap="round"></path>
                <path d="M242.1,244.8 L242.1,250.3" id="Shape" stroke="#CCCCCC" stroke-width="4" stroke-linecap="round"></path>
                <path d="M242.1,265.7 L242.1,271.2" id="Shape" stroke="#FFFFFF" stroke-width="4" stroke-linecap="round"></path>
            </g>
        </g>
    </g>
</svg>